HIERARCHY
ROOT root
{
	OFFSET	0	13.1	24.9
	CHANNELS 6  Xposition Yposition Zposition Xrotation Yrotation Zrotation
	JOINT spine_1
	{
		OFFSET	0	9.99999	0
		CHANNELS 3  Xrotation Yrotation Zrotation
		JOINT spine_2
		{
			OFFSET	0	112	-10
			CHANNELS 3  Xrotation Yrotation Zrotation
			JOINT spine_3
			{
				OFFSET	0	206.5	19.3
				CHANNELS 3  Xrotation Yrotation Zrotation
				JOINT spine_4
				{
					OFFSET	0	110.4	14.6
					CHANNELS 3  Xrotation Yrotation Zrotation
					JOINT neck_1
					{
						OFFSET	0	71.8	-50.3
						CHANNELS 3  Xrotation Yrotation Zrotation
						JOINT neck_2
						{
							OFFSET	0	86.2	-25.8
							CHANNELS 3  Xrotation Yrotation Zrotation
							JOINT head_ee
							{
								OFFSET	0	179.8	-8.7
								CHANNELS 3  Xrotation Yrotation Zrotation
								End Site
								{
									OFFSET	1	0	0
								}
							}
						}
					}
					JOINT left_clavicle
					{
						OFFSET	-43.2	22.4	-70.8
						CHANNELS 3  Xrotation Yrotation Zrotation
						JOINT left_shoulder
						{
							OFFSET	-93.9	-5.79999	48.7
							CHANNELS 3  Xrotation Yrotation Zrotation
							JOINT left_elbow
							{
								OFFSET	-291.4	-30.8	15.2
								CHANNELS 3  Xrotation Yrotation Zrotation
								JOINT left_lowarm_twist
								{
									OFFSET	-110.7	-3.89999	13.6
									CHANNELS 3  Xrotation Yrotation Zrotation
									JOINT left_hand
									{
										OFFSET	-110.7	-3.89999	13.6
										CHANNELS 3  Xrotation Yrotation Zrotation
										JOINT left_ee
										{
											OFFSET	-80.8	-5.10001	12.1
											CHANNELS 3  Xrotation Yrotation Zrotation
											End Site
											{
												OFFSET	1	0	0
											}
										}
									}
								}
							}
						}
					}
					JOINT right_clavicle
					{
						OFFSET	43.2	22.4	-70.8
						CHANNELS 3  Xrotation Yrotation Zrotation
						JOINT right_shoulder
						{
							OFFSET	93.9	-5.79999	48.7
							CHANNELS 3  Xrotation Yrotation Zrotation
							JOINT right_elbow
							{
								OFFSET	291.4	-30.8	15.2
								CHANNELS 3  Xrotation Yrotation Zrotation
								JOINT right_lowarm_twist
								{
									OFFSET	110.7	-3.89999	13.6
									CHANNELS 3  Xrotation Yrotation Zrotation
									JOINT right_hand
									{
										OFFSET	110.7	-3.89999	13.6
										CHANNELS 3  Xrotation Yrotation Zrotation
										JOINT right_ee
										{
											OFFSET	80.8	-5.10001	12.1
											CHANNELS 3  Xrotation Yrotation Zrotation
											End Site
											{
												OFFSET	1	0	0
											}
										}
									}
								}
							}
						}
					}
				}
			}
		}
	}
	JOINT left_hip
	{
		OFFSET	-82.8	-127.5	0.300001
		CHANNELS 3  Xrotation Yrotation Zrotation
		JOINT left_knee
		{
			OFFSET	-28.2	-396.7	2.2
			CHANNELS 3  Xrotation Yrotation Zrotation
			JOINT left_ankle
			{
				OFFSET	-11.7	-411.3	35.4
				CHANNELS 3  Xrotation Yrotation Zrotation
				JOINT left_toes
				{
					OFFSET	0	-60	-88.6
					CHANNELS 3  Xrotation Yrotation Zrotation
					JOINT left_foot_ee
					{
						OFFSET	-22.5	-16.5	-42.2
						CHANNELS 3  Xrotation Yrotation Zrotation
						End Site
						{
							OFFSET	1	0	0
						}
					}
				}
			}
		}
	}
	JOINT right_hip
	{
		OFFSET	82.8	-127.5	0.300001
		CHANNELS 3  Xrotation Yrotation Zrotation
		JOINT right_knee
		{
			OFFSET	28.2	-396.7	2.2
			CHANNELS 3  Xrotation Yrotation Zrotation
			JOINT right_ankle
			{
				OFFSET	11.7	-411.3	35.4
				CHANNELS 3  Xrotation Yrotation Zrotation
				JOINT right_toes
				{
					OFFSET	0	-60	-88.6
					CHANNELS 3  Xrotation Yrotation Zrotation
					JOINT right_foot_ee
					{
						OFFSET	22.5	-16.5	-42.2
						CHANNELS 3  Xrotation Yrotation Zrotation
						End Site
						{
							OFFSET	1	0	0
						}
					}
				}
			}
		}
	}
}
MOTION
Frames: 7
Frame Time: 0.02
3033.94 753.466 -856.398 -20.6633 56.5987 9.69536 5.42518 0.231807 0.757462 5.42548 0.18314 0.770676 5.42764 0.0919159 0.786786 5.42683 0.215017 0.762398 -15.2265 14.7887 3.01473 -15.8799 26.5486 8.0223 -0.0 0.0 -0.0 4.87886 15.9072 9.61357 -41.2592 -25.5178 56.0647 0.330033 -9.28527 0.0268012 58.4449 -1.63745 -6.96263 -0.0648774 7.41846 2.66753 -0.0 0.0 -0.0 11.671 9.89749 -23.5351 -25.5823 28.1793 -50.2995 1.16065 29.8959 -0.309876 47.722 0.810601 5.86835 -1.38947 -2.39703 8.23442 0.0 0.0 0.0 29.8711 -5.70023 10.1337 -51.9487 -1.39609 7.5811 33.0882 -28.4014 -5.08109 35.2994 -0.0 -0.0 -0.0 0.0 -0.0 25.4641 -23.5529 14.0397 -10.2217 -0.284038 -1.54091 13.4787 29.5846 2.37449 22.6142 -0.0 -0.0 0.0 0.0 0.0 
3021.18 754.374 -857.414 -22.1788 56.6974 11.8869 5.56274 0.324116 0.911895 5.56317 0.265435 0.930669 5.56703 0.157307 0.954909 5.56588 0.306137 0.918087 -16.2271 14.0962 1.39506 -16.9718 26.2411 6.52186 -0.0 0.0 -0.0 5.24672 15.8605 10.2072 -42.28 -25.3406 55.4976 0.254384 -7.18242 0.0159654 58.6495 -1.65518 -6.98196 -0.221598 8.73363 2.19644 -0.0 0.0 -0.0 11.6896 10.5022 -23.5765 -23.635 28.7843 -50.156 1.19765 30.6786 -0.328534 47.591 0.801795 5.85407 -1.38293 -1.15684 8.7529 0.0 0.0 0.0 31.8396 -6.40065 10.4241 -49.7657 -1.20182 7.30669 33.2151 -28.2255 -5.08515 34.7449 -0.0 -0.0 -0.0 0.0 -0.0 24.5542 -23.7192 13.3289 -9.53284 -0.273582 -1.43573 14.6927 29.4061 2.5668 23.0167 -0.0 -0.0 0.0 0.0 0.0 
3011.71 755.31 -862.347 -21.7186 58.069 12.0333 5.49692 0.394726 1.02188 5.49744 0.328905 1.04492 5.50289 0.206109 1.0759 5.50147 0.373431 1.02985 -16.8931 13.6445 0.292597 -17.6882 26.0312 5.49417 -0.0 0.0 -0.0 5.49795 15.8674 10.6132 -43.2499 -25.1534 55.1373 0.200049 -5.65957 0.00988828 58.7878 -1.66721 -6.99499 -0.332079 9.66733 1.87393 -0.0 0.0 -0.0 11.7622 10.9123 -23.7383 -22.2475 29.2221 -50.0821 1.22442 31.2373 -0.342306 47.472 0.793834 5.84109 -1.37393 -0.225384 9.11328 0.0 0.0 0.0 33.2124 -6.63089 10.546 -48.2328 -1.07176 7.10974 33.295 -28.191 -5.09222 34.3569 -0.0 -0.0 -0.0 0.0 -0.0 23.9445 -23.8784 12.8328 -9.05192 -0.265533 -1.36237 15.5447 29.2814 2.69948 23.2978 -0.0 -0.0 0.0 0.0 0.0 
2996.12 760.428 -863.061 -21.397 59.674 11.0117 5.53791 0.445103 1.26313 5.53872 0.363832 1.28889 5.54604 0.213658 1.3221 5.54385 0.419761 1.27178 -17.325 13.3404 -0.483509 -18.1479 25.8916 4.76178 -0.0 0.0 -0.0 5.71206 15.9289 10.958 -43.8237 -25.001 55.0168 0.167336 -4.73871 0.00692376 58.8876 -1.6759 -7.00437 -0.410028 10.3271 1.6505 -0.0 0.0 -0.0 11.7986 11.2252 -23.8183 -21.2532 29.5627 -49.8834 1.25079 31.7813 -0.356089 47.3767 0.787473 5.83068 -1.36522 0.463158 9.36484 0.0 0.0 0.0 34.0633 -6.63487 10.5716 -47.3493 -0.999229 6.9947 33.3502 -28.1773 -5.0977 34.0986 -0.0 -0.0 -0.0 0.0 -0.0 23.4786 -23.9949 12.4307 -8.746 -0.260092 -1.31574 16.1176 29.2143 2.78822 23.4945 -0.0 -0.0 0.0 0.0 0.0 
2984.78 772.758 -875.395 -21.0648 60.689 10.5498 5.38827 0.468108 1.33116 5.38918 0.382462 1.35825 5.39733 0.220604 1.39371 5.39488 0.437927 1.34139 -17.6263 13.1415 -1.00215 -18.4666 25.7994 4.27499 -0.0 0.0 -0.0 5.7954 16.1215 11.0863 -44.4602 -24.8054 54.9061 0.191312 -5.41391 0.00904536 59.1341 -1.69745 -7.02748 -0.466174 10.8225 1.50008 -0.0 0.0 -0.0 11.8585 11.4401 -23.9521 -20.234 29.904 -49.8255 1.33335 33.4431 -0.400586 47.09 0.768447 5.79929 -1.31654 1.62544 9.55637 0.0 0.0 0.0 41.5314 -6.9477 5.94131 -44.4499 -0.773859 6.60968 33.2783 -28.1541 -5.08813 33.9175 -0.0 -0.0 -0.0 0.0 -0.0 21.8863 -24.5753 13.2648 -8.66434 -0.258598 -1.3033 16.5353 29.1576 2.85212 23.9336 -0.0 -0.0 0.0 0.0 0.0 
2970.81 768.983 -880.671 -21.5383 60.7858 12.2498 5.27111 0.472899 1.21577 5.27184 0.394584 1.24339 5.27968 0.243474 1.28157 5.27766 0.442804 1.22705 -17.2335 13.087 -0.319904 -18.0094 25.3127 4.77938 -0.0 0.0 -0.0 5.45545 15.5563 10.5524 -44.6699 -24.3659 54.8962 0.245143 -6.92406 0.0148305 60.0947 -1.78237 -7.11666 -0.429379 11.2268 1.90391 -0.0 0.0 -0.0 11.9219 11.612 -24.0941 -19.5102 30.1725 -49.833 1.46469 35.961 -0.475377 46.5962 0.736052 5.74503 -1.18029 3.69825 9.55062 0.0 0.0 0.0 45.3506 -6.00965 6.43968 -43.1669 -0.680437 6.43583 36.8155 -28.3015 -5.48289 33.6081 -0.0 -0.0 -0.0 0.0 -0.0 21.9396 -24.9958 12.0259 -9.42012 -0.271751 -1.41853 16.5188 29.682 2.86903 24.047 -0.0 -0.0 0.0 0.0 0.0 
2953.87 758.514 -894.221 -25.2561 60.7801 15.8872 5.47863 0.372152 1.15279 5.47932 0.298048 1.17413 5.48471 0.160161 1.20073 5.48287 0.347772 1.16038 -16.2403 12.5647 0.116481 -16.8624 24.0278 4.72503 -0.0 0.0 -0.0 5.10998 15.1448 9.99808 -45.4214 -24.0017 55.1267 0.283006 -7.98062 0.0197416 60.7714 -1.84308 -7.17863 -0.404612 11.5138 2.1812 -0.0 0.0 -0.0 11.97 11.8091 -24.2012 -18.0061 30.6899 -49.0107 1.64188 39.1197 -0.583385 45.2694 0.65133 5.59786 -0.872251 6.55421 8.69907 0.0 0.0 0.0 47.2605 -4.65894 5.17904 -37.1989 -0.298246 5.60213 37.5715 -28.1975 -5.55415 35.3098 -0.0 -0.0 -0.0 0.0 -0.0 22.0546 -26.0835 11.5675 -9.91363 -0.279518 -1.49386 16.7208 29.8033 2.90564 24.4711 -0.0 -0.0 0.0 0.0 0.0 
